<svg width="34" height="34" viewBox="0 0 34 34" fill="none" xmlns="http://www.w3.org/2000/svg">
<g id="Frame">
<path id="Vector" d="M15.5836 28.3334C15.1822 28.3334 14.8457 28.1976 14.5742 27.9261C14.3027 27.6545 14.1669 27.3181 14.1669 26.9167V18.4167L5.70232 7.6146C5.37177 7.21321 5.32454 6.78821 5.56066 6.3396C5.79677 5.89099 6.16274 5.66669 6.65857 5.66669H27.3419C27.8377 5.66669 28.2037 5.89099 28.4398 6.3396C28.6759 6.78821 28.6287 7.21321 28.2982 7.6146L19.8336 18.4167V26.9167C19.8336 27.3181 19.6978 27.6545 19.4263 27.9261C19.1548 28.1976 18.8183 28.3334 18.4169 28.3334H15.5836ZM17.0002 18.5584L25.5002 7.79169H8.50024L17.0002 18.5584Z" fill="white"/>
</g>
</svg>
