<svg width="39" height="43" viewBox="0 0 39 43" fill="none" xmlns="http://www.w3.org/2000/svg">
<g id="search">
<path id="Vector" d="M25.6021 25.7156H24.3183L23.8633 25.239C25.4558 23.2267 26.4146 20.6143 26.4146 17.7725C26.4146 11.4356 21.6858 6.29907 15.8521 6.29907C10.0183 6.29907 5.28955 11.4356 5.28955 17.7725C5.28955 24.1093 10.0183 29.2459 15.8521 29.2459C18.4683 29.2459 20.8733 28.2044 22.7258 26.4746L23.1646 26.9688V28.3633L31.2896 37.1713L33.7108 34.5413L25.6021 25.7156ZM15.8521 25.7156C11.8058 25.7156 8.53955 22.1677 8.53955 17.7725C8.53955 13.3773 11.8058 9.82935 15.8521 9.82935C19.8983 9.82935 23.1646 13.3773 23.1646 17.7725C23.1646 22.1677 19.8983 25.7156 15.8521 25.7156Z" fill="black"/>
</g>
</svg>
